<?xml version="1.0" standalone="no"?>
<!DOCTYPE svg PUBLIC "-//W3C//DTD SVG 20010904//EN"
 "http://www.w3.org/TR/2001/REC-SVG-20010904/DTD/svg10.dtd">
<svg version="1.0" xmlns="http://www.w3.org/2000/svg"
 width="401.000000pt" height="319.000000pt" viewBox="0 0 401.000000 319.000000"
 preserveAspectRatio="xMidYMid meet">

<g transform="translate(0.000000,319.000000) scale(0.100000,-0.100000)"
fill="#000000" stroke="none">
<path d="M0 1600 l0 -1590 2005 0 2005 0 0 1590 0 1590 -2005 0 -2005 0 0
-1590z m1330 545 c0 -67 -3 -85 -14 -85 -8 0 -18 5 -21 10 -3 6 -1 10 4 10 14
0 14 105 1 131 -9 16 -7 19 10 19 19 0 20 -6 20 -85z m1203 78 c-17 -6 -17
-125 -1 -141 15 -15 4 -26 -17 -19 -12 5 -15 24 -15 87 0 77 1 80 23 79 12 0
16 -3 10 -6z m-2433 -73 c0 -5 -13 -10 -30 -10 -16 0 -30 5 -30 10 0 6 14 10
30 10 17 0 30 -4 30 -10z m210 0 c0 -5 -13 -10 -30 -10 -16 0 -30 5 -30 10 0
6 14 10 30 10 17 0 30 -4 30 -10z m210 0 c0 -5 -13 -10 -30 -10 -16 0 -30 5
-30 10 0 6 14 10 30 10 17 0 30 -4 30 -10z m205 0 c4 -6 -7 -10 -24 -10 -17 0
-31 5 -31 10 0 6 11 10 24 10 14 0 28 -4 31 -10z m210 0 c4 -6 -7 -10 -24 -10
-17 0 -31 5 -31 10 0 6 11 10 24 10 14 0 28 -4 31 -10z m205 0 c0 -5 -11 -10
-25 -10 -14 0 -25 5 -25 10 0 6 11 10 25 10 14 0 25 -4 25 -10z m1600 0 c0 -5
-13 -10 -30 -10 -16 0 -30 5 -30 10 0 6 14 10 30 10 17 0 30 -4 30 -10z m205
0 c4 -6 -7 -10 -24 -10 -17 0 -31 5 -31 10 0 6 11 10 24 10 14 0 28 -4 31 -10z
m205 0 c0 -5 -11 -10 -25 -10 -14 0 -25 5 -25 10 0 6 11 10 25 10 14 0 25 -4
25 -10z m210 0 c0 -5 -11 -10 -25 -10 -14 0 -25 5 -25 10 0 6 11 10 25 10 14
0 25 -4 25 -10z m210 0 c0 -5 -13 -10 -30 -10 -16 0 -30 5 -30 10 0 6 14 10
30 10 17 0 30 -4 30 -10z m210 0 c0 -5 -13 -10 -30 -10 -16 0 -30 5 -30 10 0
6 14 10 30 10 17 0 30 -4 30 -10z m-1720 -201 c0 -5 -13 -9 -28 -9 -35 0 -52
-16 -52 -52 0 -32 30 -53 62 -43 15 5 19 3 16 -6 -6 -19 -56 -24 -75 -8 -42
35 -33 111 15 127 29 10 62 5 62 -9z m40 -54 c0 -43 -4 -75 -10 -75 -6 0 -10
32 -10 75 0 43 4 75 10 75 6 0 10 -32 10 -75z m480 2 l0 -74 -32 -1 c-43 -1
-58 13 -58 54 0 35 28 61 56 50 10 -4 14 2 14 19 0 14 5 25 10 25 6 0 10 -31
10 -73z m-1007 16 l14 -48 13 48 c7 26 18 47 25 47 7 0 18 -21 26 -47 l13 -48
14 48 c7 26 17 47 23 47 12 0 12 -1 -8 -76 -9 -35 -22 -64 -28 -64 -6 0 -18
21 -26 48 l-15 47 -13 -47 c-8 -27 -19 -48 -25 -48 -10 0 -46 102 -46 130 0
28 20 5 33 -37z m215 5 c7 -7 12 -31 12 -54 0 -41 -1 -42 -31 -41 -39 2 -59
28 -40 51 8 9 22 16 33 16 11 0 16 5 13 10 -4 6 -15 8 -26 5 -21 -7 -27 10 -6
18 21 9 32 8 45 -5z m96 -4 c4 -12 1 -14 -13 -9 -29 9 -34 -10 -6 -23 28 -13
32 -34 10 -52 -17 -14 -47 -10 -52 7 -3 7 3 9 16 6 27 -7 27 13 1 27 -23 12
-26 30 -8 48 17 17 45 15 52 -4z m307 6 c10 -6 19 -20 19 -30 0 -16 -7 -20
-36 -20 -32 0 -35 -2 -23 -16 7 -8 21 -13 31 -10 12 3 18 0 15 -7 -2 -7 -14
-14 -27 -15 -44 -7 -66 54 -33 90 19 21 27 22 54 8z m97 -2 c7 -7 12 -31 12
-54 l0 -42 -37 1 c-28 2 -39 7 -41 20 -5 23 15 47 40 47 11 0 16 5 13 10 -4 6
-15 8 -26 5 -21 -7 -27 10 -6 18 21 9 32 8 45 -5z m92 -3 c0 -8 -6 -14 -12
-12 -9 1 -14 -13 -16 -40 -2 -29 -8 -43 -18 -43 -10 0 -14 13 -14 49 0 51 -1
50 53 60 4 0 7 -6 7 -14z m71 5 c10 -6 19 -20 19 -30 0 -16 -7 -20 -30 -20
-16 0 -30 -5 -30 -10 0 -18 29 -23 46 -9 14 12 16 11 13 -6 -6 -30 -53 -32
-73 -3 -21 30 -20 44 4 68 23 23 25 23 51 10z m-1458 -17 c-13 -2 -35 -2 -50
0 -16 2 -5 4 22 4 28 0 40 -2 28 -4z m1750 0 c-13 -2 -35 -2 -50 0 -16 2 -5 4
22 4 28 0 40 -2 28 -4z m-1750 -40 c-13 -2 -35 -2 -50 0 -16 2 -5 4 22 4 28 0
40 -2 28 -4z m1750 0 c-13 -2 -35 -2 -50 0 -16 2 -5 4 22 4 28 0 40 -2 28 -4z
m-633 -232 c0 -67 -1 -69 -27 -74 -37 -7 -52 1 -60 31 -8 34 9 57 41 57 22 -1
26 4 26 27 0 15 5 28 10 28 6 0 10 -30 10 -69z m490 -1 c0 -38 -3 -69 -7 -68
-5 0 -16 -2 -26 -7 -28 -12 -48 13 -45 54 3 33 5 36 36 36 28 0 32 3 32 27 0
16 2 28 5 28 3 0 5 -31 5 -70z m-724 49 c4 -8 -1 -9 -15 -4 -28 9 -71 -19 -71
-46 0 -37 19 -59 50 -59 23 0 30 5 30 19 0 11 -8 22 -17 24 -14 4 -12 5 5 6
18 1 22 -4 22 -29 0 -38 -37 -51 -75 -26 -34 22 -36 87 -3 110 26 19 64 21 74
5z m285 -51 l13 -53 15 53 c9 30 20 54 26 55 5 1 14 -17 20 -40 15 -60 21 -61
35 -4 7 28 16 51 20 51 12 0 -23 -123 -36 -127 -6 -2 -18 20 -26 49 l-15 53
-13 -52 c-8 -29 -19 -53 -25 -53 -7 0 -19 27 -28 60 -20 69 -20 73 -8 66 5 -3
15 -30 22 -58z m559 57 c0 -3 -16 -27 -35 -54 -19 -26 -35 -51 -35 -54 0 -3
17 -8 38 -10 30 -3 28 -4 -15 -5 l-53 -2 35 49 c19 26 35 51 35 55 0 3 -13 6
-30 6 -16 0 -30 5 -30 10 0 6 20 10 45 10 25 0 45 -2 45 -5z m-732 -47 c18
-18 14 -53 -8 -73 -17 -15 -24 -16 -45 -7 -45 21 -29 92 20 92 12 0 26 -5 33
-12z m403 -15 c8 -21 5 -23 -27 -23 -43 0 -42 -22 2 -31 28 -5 28 -5 6 -13
-40 -14 -74 34 -52 74 15 28 60 23 71 -7z m100 0 c8 -21 5 -23 -27 -23 -43 0
-42 -22 2 -31 28 -5 28 -5 6 -13 -17 -6 -29 -3 -43 10 -22 19 -24 36 -8 65 14
27 59 22 70 -8z m317 -23 c2 -25 0 -41 -4 -37 -4 4 -13 2 -20 -4 -20 -17 -46
-3 -42 23 2 13 12 24 26 28 28 6 29 25 2 24 -11 0 -20 3 -20 8 0 5 12 8 28 6
24 -3 27 -7 30 -48z m112 31 c16 -31 12 -49 -14 -66 -19 -13 -29 -14 -45 -5
-24 12 -29 58 -9 78 18 18 56 14 68 -7z m-1178 -228 c24 -27 30 -58 17 -86
-21 -47 -79 -56 -121 -19 -23 19 -23 79 -1 104 21 24 84 24 105 1z m533 7 c4
-6 -5 -10 -19 -10 -14 0 -26 5 -26 10 0 6 9 10 19 10 11 0 23 -4 26 -10z
m-419 -41 c4 -8 9 -8 17 0 6 6 30 11 54 11 l43 0 0 -54 c0 -79 -5 -86 -56 -86
-24 0 -44 5 -44 10 0 6 15 10 33 10 l32 1 -35 17 c-24 12 -36 25 -38 42 -8 56
-42 46 -42 -12 0 -21 -5 -28 -20 -28 -17 0 -20 7 -20 50 l0 50 34 0 c19 0 38
-5 42 -11z m222 -1 c7 -7 12 -29 12 -49 0 -32 -3 -37 -27 -42 -69 -13 -101 40
-40 68 27 12 28 14 8 12 -13 -1 -26 4 -28 11 -6 16 59 16 75 0z m130 -40 c3
-44 1 -48 -19 -48 -20 0 -21 4 -16 41 4 28 2 39 -6 36 -7 -2 -13 -20 -15 -40
-3 -29 -7 -37 -23 -37 -16 0 -19 7 -19 51 l0 50 48 -3 47 -3 3 -47z m62 2 c0
-43 -3 -50 -20 -50 -17 0 -20 7 -20 50 0 43 3 50 20 50 17 0 20 -7 20 -50z
m110 39 c0 -6 -9 -23 -21 -37 -20 -26 -20 -27 -2 -30 43 -9 34 -22 -15 -22
-29 0 -52 4 -52 9 0 5 12 23 26 40 l26 31 -26 0 c-14 0 -26 5 -26 10 0 6 20
10 45 10 26 0 45 -5 45 -11z m110 -4 c17 -21 4 -82 -19 -90 -49 -15 -95 40
-71 85 13 24 71 27 90 5z m-2375 -305 c4 -6 -8 -10 -29 -10 -19 0 -38 5 -41
10 -4 6 8 10 29 10 19 0 38 -4 41 -10z m245 0 c0 -5 -15 -10 -34 -10 -19 0
-38 5 -41 10 -4 6 10 10 34 10 23 0 41 -4 41 -10z m240 0 c0 -5 -15 -10 -34
-10 -19 0 -38 5 -41 10 -4 6 10 10 34 10 23 0 41 -4 41 -10z m240 0 c0 -13
-50 -13 -70 0 -11 7 -4 10 28 10 23 0 42 -4 42 -10z m240 0 c0 -5 -13 -10 -29
-10 -17 0 -33 5 -36 10 -4 6 8 10 29 10 20 0 36 -4 36 -10z m240 0 c0 -5 -13
-10 -29 -10 -17 0 -33 5 -36 10 -4 6 8 10 29 10 20 0 36 -4 36 -10z m240 0 c0
-5 -13 -10 -29 -10 -17 0 -33 5 -36 10 -4 6 8 10 29 10 20 0 36 -4 36 -10z
m240 0 c0 -5 -13 -10 -29 -10 -17 0 -33 5 -36 10 -4 6 8 10 29 10 20 0 36 -4
36 -10z m240 0 c0 -5 -13 -10 -29 -10 -17 0 -33 5 -36 10 -4 6 8 10 29 10 20
0 36 -4 36 -10z m240 0 c0 -5 -13 -10 -29 -10 -17 0 -33 5 -36 10 -4 6 8 10
29 10 20 0 36 -4 36 -10z m240 0 c0 -5 -13 -10 -29 -10 -17 0 -33 5 -36 10 -4
6 8 10 29 10 20 0 36 -4 36 -10z m240 0 c0 -5 -13 -10 -29 -10 -17 0 -33 5
-36 10 -4 6 8 10 29 10 20 0 36 -4 36 -10z m245 0 c4 -6 -8 -10 -29 -10 -19 0
-38 5 -41 10 -4 6 8 10 29 10 19 0 38 -4 41 -10z m240 0 c4 -6 -8 -10 -29 -10
-19 0 -38 5 -41 10 -4 6 8 10 29 10 19 0 38 -4 41 -10z m240 0 c4 -6 -8 -10
-29 -10 -19 0 -38 5 -41 10 -4 6 8 10 29 10 19 0 38 -4 41 -10z m240 0 c4 -6
-8 -10 -29 -10 -19 0 -38 5 -41 10 -4 6 8 10 29 10 19 0 38 -4 41 -10z m245 0
c0 -5 -15 -10 -34 -10 -19 0 -38 5 -41 10 -4 6 10 10 34 10 23 0 41 -4 41 -10z"/>
<path d="M2514 1896 c-10 -26 1 -51 21 -51 23 0 32 30 15 50 -16 19 -29 19
-36 1z"/>
<path d="M1745 1861 c-3 -5 -1 -12 5 -16 12 -7 30 2 30 16 0 12 -27 12 -35 0z"/>
<path d="M2155 1900 c-3 -5 1 -10 9 -10 9 0 16 5 16 10 0 6 -4 10 -9 10 -6 0
-13 -4 -16 -10z"/>
<path d="M2245 1861 c-3 -5 -1 -12 5 -16 12 -7 30 2 30 16 0 12 -27 12 -35 0z"/>
<path d="M2415 1900 c-3 -5 3 -10 15 -10 12 0 18 5 15 10 -3 6 -10 10 -15 10
-5 0 -12 -4 -15 -10z"/>
<path d="M2047 1634 c-4 -4 -7 -20 -7 -36 0 -25 4 -29 23 -26 17 2 22 10 22
33 0 29 -22 45 -38 29z"/>
<path d="M2534 1616 c-7 -31 1 -46 26 -46 25 0 33 15 26 46 -4 15 -14 24 -26
24 -12 0 -22 -9 -26 -24z"/>
<path d="M1930 1625 c-18 -21 -3 -55 25 -55 26 0 38 28 23 54 -11 20 -32 21
-48 1z"/>
<path d="M2337 1634 c-14 -14 -6 -24 19 -24 16 0 24 5 22 13 -5 14 -31 21 -41
11z"/>
<path d="M2437 1634 c-14 -14 -6 -24 19 -24 16 0 24 5 22 13 -5 14 -31 21 -41
11z"/>
<path d="M2757 1593 c-13 -12 -7 -23 12 -23 10 0 21 7 25 15 5 15 -24 22 -37
8z"/>
<path d="M2854 1615 c-8 -31 6 -48 32 -43 29 5 26 62 -3 66 -17 3 -24 -3 -29
-23z"/>
<path d="M1672 1388 c-30 -30 -3 -98 33 -84 12 4 15 17 13 48 -3 45 -22 60
-46 36z"/>
<path d="M1904 1346 c-8 -21 4 -52 15 -40 15 15 17 47 4 51 -7 3 -16 -2 -19
-11z"/>
<path d="M2030 1310 c0 -5 4 -10 9 -10 6 0 13 5 16 10 3 6 -1 10 -9 10 -9 0
-16 -4 -16 -10z"/>
<path d="M2440 1310 c0 -5 6 -10 14 -10 8 0 18 5 21 10 3 6 -3 10 -14 10 -12
0 -21 -4 -21 -10z"/>
</g>
</svg>
